<svg width="20" height="20" viewBox="0 0 20 20" fill="none" xmlns="http://www.w3.org/2000/svg">
<circle cx="10" cy="10" r="9.5" fill="#282828" stroke="black"/>
<rect x="2" y="8" width="0.5" height="4" rx="0.25" fill="#FF1616"/>
<rect x="3" y="6" width="0.5" height="8" rx="0.25" fill="#FF1616"/>
<rect x="4" y="5" width="0.5" height="10" rx="0.25" fill="#FF1616"/>
<rect x="5" y="4" width="0.5" height="12" rx="0.25" fill="#FF1616"/>
<rect x="6" y="3" width="0.5" height="14" rx="0.25" fill="#FF1616"/>
<rect x="7" y="5" width="0.5" height="10" rx="0.25" fill="#FF1616"/>
<rect x="8" y="6" width="0.5" height="8" rx="0.25" fill="#FF1616"/>
<rect x="9" y="8" width="0.5" height="5" rx="0.25" fill="white"/>
<rect x="11" y="5" width="0.5" height="10" rx="0.25" fill="white"/>
<rect x="17" y="10" width="0.5" height="1" rx="0.25" fill="white"/>
<rect x="12" y="9" width="0.5" height="3" rx="0.25" fill="white"/>
<rect x="12" y="9" width="0.5" height="3" rx="0.25" fill="white"/>
<rect x="12" y="9" width="0.5" height="3" rx="0.25" fill="white"/>
<rect x="10" y="9" width="0.5" height="3" rx="0.25" fill="white"/>
<rect x="10" y="9" width="0.5" height="3" rx="0.25" fill="white"/>
<rect x="10" y="9" width="0.5" height="3" rx="0.25" fill="white"/>
<rect x="16" y="9" width="0.5" height="3" rx="0.25" fill="white"/>
<rect x="16" y="9" width="0.5" height="3" rx="0.25" fill="white"/>
<rect x="16" y="9" width="0.5" height="3" rx="0.25" fill="white"/>
<rect x="13" y="8" width="0.5" height="5" rx="0.25" fill="white"/>
<rect x="13" y="8" width="0.5" height="5" rx="0.25" fill="white"/>
<rect x="13" y="8" width="0.5" height="5" rx="0.25" fill="white"/>
<rect x="15" y="8" width="0.5" height="5" rx="0.25" fill="white"/>
<rect x="15" y="8" width="0.5" height="5" rx="0.25" fill="white"/>
<rect x="15" y="8" width="0.5" height="5" rx="0.25" fill="white"/>
<rect x="14" y="7" width="0.5" height="7" rx="0.25" fill="white"/>
<rect x="14" y="7" width="0.5" height="7" rx="0.25" fill="white"/>
<rect x="14" y="7" width="0.5" height="7" rx="0.25" fill="white"/>
</svg>
