<svg width="20" height="20" viewBox="0 0 20 20" fill="none" xmlns="http://www.w3.org/2000/svg">
<path d="M19.5 10C19.5 15.2467 15.2467 19.5 10 19.5C4.75329 19.5 0.5 15.2467 0.5 10C0.5 4.75329 4.75329 0.5 10 0.5C15.2467 0.5 19.5 4.75329 19.5 10Z" fill="white" fill-opacity="0.74" stroke="black"/>
<rect x="5.26315" y="4.21053" width="9.47368" height="11.5789" rx="1" fill="#FF8420"/>
<rect x="6.3158" y="6.31579" width="7.36842" height="1.05263" rx="0.526316" fill="#F8EBEB"/>
<rect x="6.3158" y="8.42105" width="5.26316" height="1.05263" rx="0.526316" fill="#F8EBEB"/>
<rect x="6.3158" y="10.5263" width="4.21053" height="1.05263" rx="0.526316" fill="#F8EBEB"/>
<rect x="15.0297" y="5.26316" width="1.29566" height="7.76056" rx="0.647829" transform="rotate(18 15.0297 5.26316)" fill="#D3D760"/>
<path d="M13.1204 13.5092C13.063 13.5721 12.9583 13.5391 12.9473 13.4547L12.7817 12.1829C12.7723 12.1105 12.8412 12.0527 12.9109 12.0746L13.9404 12.3985C14.0101 12.4204 14.0335 12.5073 13.9843 12.5613L13.1204 13.5092Z" fill="#F2E1E1"/>
</svg>
